<svg xmlns="http://www.w3.org/2000/svg" data-name="Layer 1" viewBox="0 0 512 512" id="ashoka-chakra"><path fill="#416bd0" d="M256 211.737a3.5 3.5 0 0 1-3.5-3.5V38.5a3.5 3.5 0 0 1 7 0v169.737a3.5 3.5 0 0 1-3.5 3.5zm-12.366 1.62a3.501 3.501 0 0 1-3.38-2.596L196.327 46.817a3.5 3.5 0 0 1 6.762-1.812l43.929 163.945a3.503 3.503 0 0 1-3.383 4.406zm-11.515 4.774a3.498 3.498 0 0 1-3.035-1.75L144.219 69.39a3.5 3.5 0 1 1 6.062-3.5l84.865 146.99a3.5 3.5 0 0 1-3.027 5.251zm-9.893 7.595a3.491 3.491 0 0 1-2.475-1.025L99.729 104.68a3.5 3.5 0 0 1 4.95-4.95l120.022 120.022a3.5 3.5 0 0 1-2.475 5.975zm-7.597 9.89a3.487 3.487 0 0 1-1.747-.469L65.89 150.281a3.5 3.5 0 1 1 3.5-6.062l146.992 84.866a3.5 3.5 0 0 1-1.753 6.532zm-4.772 11.52a3.512 3.512 0 0 1-.907-.12L45.005 203.089a3.5 3.5 0 0 1 1.812-6.762l163.944 43.929a3.5 3.5 0 0 1-.904 6.882zm-1.62 12.364H38.5a3.5 3.5 0 0 1 0-7h169.737a3.5 3.5 0 0 1 0 7zM45.909 315.794a3.5 3.5 0 0 1-.904-6.882l163.945-43.929a3.5 3.5 0 0 1 1.811 6.762L46.817 315.674a3.515 3.515 0 0 1-.908.12zm21.734 52.456a3.5 3.5 0 0 1-1.753-6.531l146.993-84.867a3.5 3.5 0 0 1 3.5 6.063L69.39 367.78a3.487 3.487 0 0 1-1.747.47zm34.561 45.046a3.5 3.5 0 0 1-2.475-5.975l120.022-120.022a3.5 3.5 0 1 1 4.95 4.95L104.68 412.271a3.491 3.491 0 0 1-2.475 1.025zm45.043 34.565a3.5 3.5 0 0 1-3.028-5.25l84.865-146.992a3.5 3.5 0 0 1 6.063 3.5L150.281 446.11a3.5 3.5 0 0 1-3.034 1.75zm52.462 21.729a3.503 3.503 0 0 1-3.383-4.407l43.929-163.945a3.5 3.5 0 0 1 6.762 1.811l-43.93 163.946a3.502 3.502 0 0 1-3.378 2.595zM256 477a3.5 3.5 0 0 1-3.5-3.5V303.763a3.5 3.5 0 1 1 7 0V473.5a3.5 3.5 0 0 1-3.5 3.5zm56.291-7.41a3.502 3.502 0 0 1-3.379-2.595L264.983 303.05a3.5 3.5 0 1 1 6.762-1.812l43.929 163.945a3.503 3.503 0 0 1-3.383 4.407zm52.462-21.73a3.498 3.498 0 0 1-3.034-1.75l-84.871-147a3.5 3.5 0 1 1 6.062-3.5l84.871 147a3.5 3.5 0 0 1-3.028 5.25zm45.043-34.564a3.491 3.491 0 0 1-2.475-1.025L287.299 292.249a3.5 3.5 0 1 1 4.95-4.95L412.271 407.32a3.5 3.5 0 0 1-2.475 5.975zm34.56-45.046a3.487 3.487 0 0 1-1.746-.469l-146.999-84.87a3.5 3.5 0 1 1 3.5-6.062l147 84.87a3.5 3.5 0 0 1-1.754 6.531zm21.735-52.456a3.512 3.512 0 0 1-.908-.12L301.24 271.745a3.5 3.5 0 1 1 1.811-6.762l163.945 43.93a3.5 3.5 0 0 1-.904 6.88zM473.5 259.5H303.763a3.5 3.5 0 1 1 0-7H473.5a3.5 3.5 0 0 1 0 7zm-171.362-12.362a3.5 3.5 0 0 1-.904-6.882l163.95-43.93a3.5 3.5 0 1 1 1.81 6.762l-163.948 43.93a3.512 3.512 0 0 1-.908.12zm-4.766-11.521a3.5 3.5 0 0 1-1.754-6.532l146.992-84.866a3.5 3.5 0 0 1 3.5 6.062l-146.992 84.866a3.487 3.487 0 0 1-1.746.47zm-7.598-9.89a3.5 3.5 0 0 1-2.475-5.976L407.32 99.729a3.5 3.5 0 0 1 4.95 4.95L292.249 224.701a3.491 3.491 0 0 1-2.475 1.025zm-9.899-7.586a3.5 3.5 0 0 1-3.027-5.25l84.87-147.001a3.5 3.5 0 0 1 6.063 3.5l-84.87 147a3.499 3.499 0 0 1-3.036 1.75zm-11.51-4.78a3.503 3.503 0 0 1-3.383-4.407l43.93-163.949a3.5 3.5 0 1 1 6.762 1.812l-43.93 163.948a3.502 3.502 0 0 1-3.379 2.595z"></path><circle cx="256" cy="256" r="47.763" fill="#416bd0"></circle><path fill="#3b4a9b" d="M260.985 208.496A47.753 47.753 0 0 1 226 288.763a48.302 48.302 0 0 1-4.984-.26 47.76 47.76 0 1 0 39.969-80.007Z"></path><path fill="#416bd0" d="M256 3.5C116.548 3.5 3.5 116.548 3.5 256S116.548 508.5 256 508.5 508.5 395.452 508.5 256 395.452 3.5 256 3.5Zm217.032 266.69a14.414 14.414 0 1 0-3.653 28.273h.003a215.613 215.613 0 0 1-7.315 27.475l-.013-.004a14.414 14.414 0 1 0-10.901 26.317l.012.006a215.604 215.604 0 0 1-14.254 24.6l-.003-.002a14.413 14.413 0 1 0-17.409 22.575l.067-.052q-4.695 5.341-9.77 10.418-5.044 5.044-10.355 9.715l-.01-.011a14.414 14.414 0 1 0-22.575 17.408l.002.003a215.662 215.662 0 0 1-24.6 14.254l-.007-.012a14.414 14.414 0 1 0-26.317 10.9l.004.014a215.626 215.626 0 0 1-27.474 7.315v-.003a14.414 14.414 0 1 0-28.273 3.653l.001.015q-7.056.452-14.192.453-7.134 0-14.192-.453l.001-.015a14.414 14.414 0 1 0-28.272-3.653v.003a215.585 215.585 0 0 1-27.475-7.315l.004-.013a14.414 14.414 0 1 0-26.317-10.901l-.006.012a215.662 215.662 0 0 1-24.6-14.254l.001-.003A14.414 14.414 0 1 0 112.57 419.5l-.01.011q-5.309-4.67-10.356-9.715-5.044-5.044-9.715-10.355l.012-.01a14.414 14.414 0 1 0-17.409-22.576l-.003.002a215.595 215.595 0 0 1-14.254-24.6l.012-.006a14.414 14.414 0 1 0-10.9-26.317l-.014.004a215.605 215.605 0 0 1-7.315-27.474h.003a14.413 14.413 0 1 0-3.653-28.273h-.015Q38.5 263.137 38.5 256q0-7.134.453-14.192l.015.001a14.414 14.414 0 1 0 3.653-28.272h-.003a215.605 215.605 0 0 1 7.315-27.475l.013.004a14.414 14.414 0 1 0 10.901-26.317l-.012-.007a215.612 215.612 0 0 1 14.254-24.6l.003.003a14.414 14.414 0 1 0 17.409-22.575l-.012-.01q4.67-5.309 9.715-10.356 5.044-5.044 10.355-9.715l.01.011a14.414 14.414 0 1 0 22.575-17.408l-.001-.003a215.624 215.624 0 0 1 24.6-14.254l.006.012a14.414 14.414 0 1 0 26.317-10.9l-.004-.014a215.624 215.624 0 0 1 27.474-7.315v.003a14.414 14.414 0 1 0 28.273-3.653v-.015Q248.863 38.5 256 38.5q7.134 0 14.192.453l-.001.015a14.414 14.414 0 1 0 28.272 3.653l.001-.003a215.585 215.585 0 0 1 27.474 7.315l-.004.013a14.414 14.414 0 1 0 26.317 10.901l.006-.012a215.6 215.6 0 0 1 24.515 14.197l.084.06A14.414 14.414 0 1 0 399.43 92.5l.01-.011q5.309 4.67 10.356 9.715 5.044 5.044 9.715 10.355l-.012.01a14.414 14.414 0 1 0 17.409 22.576l.003-.002a215.602 215.602 0 0 1 14.254 24.6l-.012.006a14.414 14.414 0 1 0 10.9 26.317l.014-.004a215.612 215.612 0 0 1 7.295 27.373l.017.102a14.414 14.414 0 1 0 3.653 28.272h.016q.45 7.055.452 14.191 0 7.134-.453 14.192Z"></path><path fill="#3b4a9b" d="M256 3.5c-5.037 0-10.036.165-15 .456C373.467 11.719 478.5 121.586 478.5 256S373.467 500.281 241 508.044c4.964.291 9.963.456 15 .456 139.452 0 252.5-113.048 252.5-252.5S395.452 3.5 256 3.5Z"></path></svg>